<svg width="512" height="512" xmlns="http://www.w3.org/2000/svg">
 <defs>
  <linearGradient y2="Infinity" y1="-Infinity" x2="Infinity" x1="Infinity" id="SVGID_1_">
   <stop stop-color="#517FA6" offset="0"/>
   <stop stop-color="#426699" offset="1"/>
  </linearGradient>
 </defs>
 <g>
  <title>background</title>
  <rect fill="none" id="canvas_background" height="402" width="582" y="-1" x="-1"/>
 </g>
 <g>
  <title>Layer 1</title>
  <path id="svg_2" fill="url(#SVGID_1_)" d="m271.06,214.363l0,-0.525c-0.1,0.17 -0.247,0.36 -0.347,0.525l0.347,0z"/>
  <path id="svg_3" fill="#f2c4ce" d="m256,7.098c-137.465,0 -248.902,111.437 -248.902,248.902c0,137.465 111.437,248.902 248.902,248.902c137.465,0 248.902,-111.437 248.902,-248.902c0,-137.465 -111.437,-248.902 -248.902,-248.902zm-68.545,345.704l-53.822,0l0,-161.912l53.822,0l0,161.912zm-26.901,-184.008l-0.363,0c-18.058,0 -29.755,-12.445 -29.755,-27.992c0,-15.886 12.052,-27.969 30.465,-27.969c18.421,0 29.747,12.083 30.102,27.969c0.001,15.547 -11.68,27.992 -30.449,27.992zm221.01,184.011l-53.822,0l0,-86.627c0,-21.759 -7.792,-36.613 -27.271,-36.613c-14.875,0 -23.725,10.008 -27.624,19.687c-1.42,3.464 -1.783,8.276 -1.783,13.125l0,90.425l-53.83,0c0,0 0.718,-146.718 0,-161.912l53.827,0l0,22.948c7.149,-11.015 19.927,-26.754 48.518,-26.754c35.43,0 61.983,23.138 61.986,72.871l0,92.85l-0.001,0z"/>
 </g>
</svg>